<svg xmlns="http://www.w3.org/2000/svg" width="256" height="256" viewBox="0 0 256 256">
<!-- SVG created with Arrow, by QuiverAI (https://quiver.ai) -->
  <path d="m172.8 50c-16.32 0-29.07 4.35-39.9 10.91l-0.16 0.2c5.96 4.7 10.82 10.61 13.13 12.5 8.29-4.14 16.73-6.5 26.55-6.5 33.41 0 60.25 28.36 60.25 60.9 0 32.17-25.94 60.31-60.56 60.31-10.24 0-19.2-2.27-26.04-5.9-4.86 6.07-9.76 10.54-13.22 12.07 11.04 6.9 23.66 10.59 39.55 10.59 25.56 0 46.58-12.12 60.29-28.27v25.75h16.3v-75.46c0-38.01-32.12-77.1-76.19-77.1z" fill="#000"/>
  <path d="m82.91 50c-41.95 0-76.28 34.08-76.28 78.01 0 41.8 33.43 77.1 76.28 77.1 14.99 0 26.94-3.64 38.88-10.82-4.56-3.15-8.84-7.5-12.48-11.92-8.4 4.09-16.1 5.9-25.66 5.58-30.46-0.21-53.52-22.72-60.73-51.76h66.54c-0.31-2.87-0.31-5.33-0.31-8.15 0-3.12 0.05-5 0.31-8.73h-66.64c4.4-29 28.97-52.15 60.4-52.15 9.99 0 17.79 2.1 25.67 6.04 4.22-5.16 8.13-8.97 13.47-12.5-11.58-7.29-24.24-10.7-38.98-10.7h-0.47z" fill="#000"/>
  <path d="m127.3 64.39c-20.6 15.09-31.55 38.24-31.55 63.6 0 23.36 10.95 48.23 31.65 62.25 12.1-9.41 21.56-21.78 27.09-35.65h-18.85c-3.08 5.64-4.47 9.27-8.03 13.06-8.1-8.77-12.27-19.44-14.02-31.41h45.25c0.31-3.23 0.47-5.01 0.36-8.33 0-22.72-9.67-47.59-31.9-63.52zm-0.11 23.76c8.5 9.83 12.47 21.64 14.27 31.1h-27.77c1.34-11.24 6.4-22.64 13.5-31.1z" fill="#000"/>
</svg>